<?xml version="1.0" standalone="no"?>
<!DOCTYPE svg PUBLIC "-//W3C//DTD SVG 20010904//EN"
 "http://www.w3.org/TR/2001/REC-SVG-20010904/DTD/svg10.dtd">
<svg version="1.0" xmlns="http://www.w3.org/2000/svg"
 width="278.852728pt" height="384.859376pt" viewBox="0 0 278.852728 384.859376"
 preserveAspectRatio="xMidYMid meet">
<metadata>
Created by potrace 1.12, written by Peter Selinger 2001-2015
</metadata>
<g transform="translate(-125.182840,437.000000) scale(0.100000,-0.100000)"
fill="#000000" stroke="none">
<path d="M2470 4355 c-10 -11 -35 -15 -110 -15 -75 0 -100 -4 -110 -15 -8 -10
-31 -15 -72 -15 -43 0 -60 -4 -64 -15 -5 -11 -22 -15 -64 -15 -42 0 -59 -4
-64 -15 -3 -8 -17 -20 -31 -25 -14 -5 -25 -14 -25 -20 0 -5 -20 -10 -44 -10
-26 0 -48 -6 -56 -15 -7 -8 -29 -15 -50 -15 -21 0 -43 -7 -50 -15 -8 -9 -30
-15 -60 -15 -30 0 -52 -6 -60 -15 -7 -8 -22 -15 -34 -15 -12 0 -27 -9 -34 -20
-7 -11 -21 -20 -32 -20 -10 0 -23 -6 -27 -13 -8 -14 -54 -41 -85 -51 -11 -3
-18 -15 -18 -30 0 -14 -4 -28 -10 -31 -6 -4 -10 -130 -10 -345 0 -215 4 -341
10 -345 6 -4 10 -91 10 -229 0 -180 3 -226 15 -242 10 -13 14 -45 15 -100 0
-66 4 -85 20 -104 20 -23 25 -65 14 -107 -5 -20 -13 -23 -53 -23 -51 -1 -93
-28 -106 -67 -3 -13 -10 -23 -15 -23 -5 0 -12 -16 -16 -36 -5 -28 -2 -40 15
-58 16 -17 21 -35 21 -73 0 -34 5 -53 14 -56 7 -3 16 -23 19 -45 4 -22 14 -45
22 -52 8 -7 15 -23 15 -36 0 -13 5 -24 10 -24 6 0 10 -10 10 -21 0 -12 16 -41
35 -65 19 -23 35 -46 35 -50 0 -4 13 -19 29 -33 15 -14 31 -39 35 -56 10 -41
64 -95 95 -95 19 -1 35 -13 59 -45 28 -39 32 -52 32 -108 0 -45 5 -68 15 -77
9 -7 15 -29 15 -55 0 -27 7 -51 20 -68 17 -22 20 -40 20 -144 0 -89 4 -124 15
-139 19 -26 20 -90 0 -98 -10 -4 -15 -20 -15 -51 0 -25 -4 -45 -9 -45 -4 0
-24 -13 -42 -30 -19 -16 -42 -30 -51 -30 -9 0 -20 -9 -23 -20 -4 -13 -15 -20
-30 -20 -14 0 -38 -14 -55 -30 -17 -17 -38 -30 -48 -30 -9 0 -30 -14 -46 -30
-16 -17 -33 -30 -37 -30 -4 0 -11 -9 -14 -20 -3 -11 -14 -20 -24 -20 -10 0
-24 -7 -31 -15 -8 -9 -30 -15 -57 -15 -31 0 -43 -4 -41 -12 7 -20 36 -22 97
-7 61 14 94 31 127 65 11 12 29 24 40 28 10 3 33 19 51 36 18 16 36 30 41 30
6 0 8 -27 6 -61 -4 -53 -2 -63 18 -80 34 -28 62 -21 66 17 3 27 7 31 29 31 35
0 53 27 53 79 0 24 5 46 10 49 6 3 10 46 10 95 0 65 4 92 15 104 20 20 20 109
0 126 -12 10 -15 34 -14 109 1 53 4 86 7 74 4 -12 17 -33 30 -47 12 -15 22
-35 22 -46 0 -11 6 -20 13 -20 20 0 54 -41 63 -74 6 -25 55 -86 69 -86 7 0 63
-57 95 -98 14 -18 30 -32 37 -32 7 0 13 -7 13 -15 0 -10 10 -15 33 -15 26 0
36 -6 45 -25 7 -14 20 -25 31 -25 10 0 21 -7 25 -15 8 -23 524 -23 532 0 4 8
14 15 24 15 10 0 25 11 34 25 23 35 73 35 86 0 7 -19 17 -25 39 -25 38 0 81
16 81 30 0 6 11 21 25 34 14 13 25 31 25 40 0 17 57 76 72 76 5 0 8 7 8 15 0
8 7 15 15 15 9 0 15 9 15 24 0 13 7 26 15 30 11 4 15 -2 15 -23 0 -16 7 -31
15 -35 11 -4 15 -22 15 -76 0 -54 4 -72 15 -76 9 -4 15 -19 15 -39 0 -20 6
-35 15 -39 8 -3 15 -17 15 -32 0 -14 9 -37 20 -51 13 -17 20 -41 20 -69 l0
-44 49 0 c28 0 53 5 56 10 9 14 314 13 395 -2 83 -15 124 -16 130 -3 3 6 -11
11 -30 13 -19 2 -39 10 -43 18 -4 8 -21 14 -37 14 -19 0 -33 7 -40 20 -7 13
-21 20 -40 20 -18 0 -41 11 -62 30 -21 20 -43 30 -63 30 -20 0 -43 11 -65 30
-19 16 -45 29 -57 30 -13 0 -23 4 -23 8 0 5 -10 21 -23 35 -18 21 -32 27 -64
27 -27 0 -43 5 -47 15 -3 8 -14 15 -24 15 -30 0 -62 42 -62 82 0 28 -5 38 -20
43 -19 6 -20 15 -20 206 0 188 1 200 20 211 11 7 20 20 20 29 0 9 7 22 15 29
8 7 15 29 15 50 0 21 7 43 15 50 8 7 15 29 15 50 0 29 8 44 37 73 20 21 46 37
58 37 28 0 95 74 95 104 1 13 14 29 33 41 26 17 33 27 35 62 2 23 10 47 18 53
7 7 14 18 14 25 0 7 7 26 15 41 8 16 15 43 15 60 0 19 6 34 15 38 9 3 15 18
15 39 0 21 8 41 20 52 29 26 29 141 0 178 -11 14 -20 30 -20 36 0 21 -51 60
-82 63 -28 3 -33 7 -36 32 -2 19 2 32 12 38 12 7 16 25 16 77 0 49 4 72 15 81
12 10 15 42 15 170 0 120 4 164 15 186 21 40 21 242 0 270 -8 11 -14 41 -15
72 0 37 -4 54 -15 58 -11 5 -15 23 -15 79 0 53 -4 74 -14 78 -8 3 -17 19 -21
36 -4 17 -12 34 -20 38 -7 5 -14 17 -17 28 -2 11 -11 21 -21 23 -18 4 -137
120 -137 134 0 5 -13 27 -30 50 -16 22 -30 49 -30 60 0 14 -8 18 -35 18 -19 0
-35 -4 -35 -10 0 -5 -7 -10 -15 -10 -8 0 -15 5 -15 10 0 6 7 10 16 10 32 0 6
25 -28 28 -30 3 -37 8 -43 30 -9 36 -44 72 -70 72 -13 0 -32 13 -45 30 -19 25
-30 30 -65 30 -37 0 -45 4 -66 35 -21 30 -29 35 -65 35 -28 0 -44 5 -48 15 -3
9 -18 15 -35 15 -16 0 -42 7 -57 15 -20 10 -59 15 -125 15 -77 0 -98 3 -103
15 -3 9 -18 15 -39 15 -19 0 -40 -7 -47 -15z m-734 -272 c17 -17 17 -18 -3
-21 -12 -2 -27 -10 -33 -18 -7 -8 -21 -14 -31 -14 -10 0 -21 -4 -24 -10 -8
-13 35 -70 60 -80 16 -7 13 -9 -15 -9 -25 -1 -39 5 -48 19 -7 11 -23 20 -37
20 -14 0 -28 7 -31 15 -4 11 -21 15 -55 15 -27 0 -49 3 -49 6 0 12 34 33 53
34 10 0 20 7 23 15 4 8 18 15 34 15 15 0 33 7 40 15 18 21 94 20 116 -2z
m1432 -52 c9 -5 38 -18 64 -30 43 -20 47 -25 53 -66 4 -24 13 -46 21 -49 14
-6 20 -70 8 -100 -8 -20 -40 -21 -48 -1 -3 10 -19 15 -46 15 -29 0 -43 5 -52
20 -8 13 -24 20 -44 20 -17 0 -37 7 -44 15 -7 8 -18 15 -26 15 -21 0 -27 -20
-11 -33 15 -12 21 -28 18 -54 -1 -18 -48 -16 -54 1 -3 8 -21 17 -39 21 -18 4
-42 14 -53 21 -28 20 -72 17 -105 -7 -23 -18 -38 -21 -81 -17 -33 4 -55 11
-61 22 -5 9 -18 16 -30 16 -32 0 -98 58 -98 86 0 20 5 24 32 24 36 0 68 24 68
52 0 15 8 18 49 18 31 0 53 -5 61 -15 9 -10 32 -15 76 -15 51 0 68 -4 84 -20
22 -22 69 -27 88 -8 7 7 12 22 12 35 0 21 4 23 59 23 33 0 63 5 66 10 8 12 11
12 33 1z m-790 -186 c87 -75 103 -87 117 -81 8 3 15 17 15 31 0 29 8 32 26 8
18 -25 18 -63 -1 -63 -8 0 -24 -5 -34 -12 -16 -10 -25 -7 -55 16 -20 15 -40
36 -46 46 -6 11 -16 20 -23 20 -7 1 -25 12 -42 25 l-30 25 28 0 c15 0 35 -7
45 -15z m808 -331 c-3 -9 -6 -18 -6 -20 0 -2 -4 -4 -9 -4 -5 0 -7 9 -4 20 3
11 10 20 15 20 6 0 7 -7 4 -16z m-169 -51 c-21 -2 -41 -11 -44 -19 -3 -8 -14
-14 -24 -14 -18 0 -18 1 -1 19 12 14 30 19 62 18 43 0 44 -1 7 -4z m269 -60
c3 -10 11 -27 17 -38 7 -13 13 -100 15 -238 4 -201 6 -218 23 -228 15 -7 19
-21 19 -58 0 -31 5 -53 15 -61 9 -8 15 -30 15 -58 0 -43 -1 -45 -17 -30 -62
55 -111 105 -115 117 -3 10 -25 16 -71 19 -57 4 -74 1 -117 -22 -27 -14 -57
-26 -67 -26 -9 0 -24 -7 -33 -15 -9 -8 -45 -22 -80 -31 -36 -9 -69 -20 -75
-25 -5 -5 -29 -9 -52 -9 -35 0 -49 -6 -68 -26 -14 -15 -25 -22 -25 -15 0 15
-63 14 -78 -1 -7 -7 -12 -28 -12 -48 0 -28 10 -47 55 -98 30 -35 55 -67 55
-71 0 -4 8 -16 19 -27 10 -11 24 -30 30 -42 15 -27 44 -28 62 -2 12 16 27 20
98 21 75 2 85 0 100 -20 14 -19 24 -21 75 -18 42 2 61 8 68 20 5 9 18 17 28
17 44 0 98 33 114 70 34 77 11 140 -51 140 -36 0 -108 55 -82 64 48 16 81 12
99 -11 10 -12 27 -23 39 -23 16 0 21 -6 21 -25 0 -23 4 -25 45 -25 45 0 45 0
45 36 0 22 4 33 11 29 6 -5 8 -27 3 -61 -5 -46 -3 -58 12 -75 16 -18 19 -42
23 -174 2 -97 -1 -171 -9 -201 -6 -27 -15 -86 -20 -132 -5 -58 -13 -89 -26
-103 -15 -16 -18 -34 -16 -79 3 -48 0 -62 -17 -79 -17 -17 -21 -34 -21 -86 0
-49 -4 -67 -15 -71 -9 -4 -15 -20 -15 -43 -1 -22 -15 -62 -39 -106 -31 -56
-44 -71 -65 -73 -22 -3 -29 2 -39 27 -9 24 -17 31 -38 31 -36 0 -39 -12 -21
-88 12 -55 12 -65 -1 -80 -8 -9 -17 -28 -21 -42 -3 -14 -9 -29 -13 -35 -9 -12
-101 -75 -109 -75 -4 0 -24 -14 -46 -32 -34 -26 -43 -30 -59 -20 -28 18 -36
15 -43 -14 l-7 -27 -37 37 c-21 20 -44 36 -52 36 -10 0 -21 22 -32 58 -16 52
-16 59 -1 82 9 14 22 29 30 33 7 4 13 16 13 26 0 10 9 21 20 24 22 6 27 36 8
55 -8 8 -63 12 -180 12 l-167 0 -26 -27 c-34 -37 -32 -61 10 -106 19 -21 35
-46 35 -55 0 -9 -26 -45 -58 -80 -53 -56 -62 -62 -98 -62 -27 0 -45 6 -57 20
-9 11 -28 20 -42 20 -14 0 -25 4 -25 8 0 5 -16 17 -36 28 -20 10 -40 29 -45
42 -5 13 -22 27 -38 33 -27 10 -28 13 -34 87 -11 136 -56 212 -67 112 -5 -41
-7 -45 -30 -42 -14 1 -32 12 -40 24 -8 13 -23 31 -34 41 -10 11 -21 38 -24 61
-3 22 -11 50 -18 61 -8 11 -14 28 -14 38 0 10 -8 29 -17 43 -16 25 -24 57 -44
180 -5 33 -8 190 -7 349 l3 290 28 13 c23 11 27 19 27 58 0 40 2 44 25 44 16
0 25 6 25 15 0 8 5 15 11 15 6 0 25 14 42 30 18 17 39 37 48 45 22 21 52 19
67 -5 9 -15 23 -20 58 -20 32 0 44 -4 41 -12 -2 -9 -27 -13 -70 -14 -49 -1
-75 -7 -101 -24 -42 -26 -45 -43 -11 -66 l25 -16 -25 -20 c-32 -25 -32 -46 -1
-58 13 -5 27 -14 31 -19 3 -6 16 -11 28 -11 12 0 28 -9 35 -21 13 -20 19 -20
119 -14 83 6 110 12 124 26 11 11 24 19 29 19 6 0 21 9 33 20 12 12 32 23 44
26 17 5 23 14 23 33 1 22 2 24 11 9 15 -27 47 -22 85 14 28 27 34 40 34 75 0
36 -5 46 -33 67 -19 15 -41 26 -49 26 -9 0 -18 7 -22 15 -3 8 -15 15 -26 15
-12 0 -28 7 -36 15 -9 8 -28 15 -44 15 -17 0 -37 10 -51 25 -13 13 -29 25 -35
25 -6 0 -22 9 -36 19 -13 11 -38 23 -54 27 -16 4 -33 10 -39 14 -17 13 -94 22
-133 15 -38 -6 -132 -79 -132 -103 0 -20 -18 -14 -25 8 -4 12 0 31 9 45 13 20
16 57 16 205 0 124 4 188 12 203 7 12 15 47 18 77 l5 55 47 3 c36 2 48 8 53
23 7 20 39 26 50 9 3 -5 24 -10 46 -10 21 0 47 -4 57 -9 9 -5 46 -14 82 -20
36 -7 77 -21 92 -32 16 -11 44 -19 68 -19 27 0 43 -5 46 -15 4 -8 14 -15 25
-15 10 0 23 -9 29 -20 6 -11 21 -20 33 -20 13 0 36 -13 52 -30 40 -41 90 -42
131 0 18 18 39 30 57 30 18 0 41 12 64 35 20 19 44 35 53 35 10 0 23 7 30 15
7 8 23 15 35 15 12 0 28 7 35 15 7 8 21 15 31 15 10 0 23 9 29 20 8 15 21 20
49 20 22 0 44 6 51 15 9 11 35 15 107 15 80 0 94 -2 99 -17z m270 -10 c7 -10
14 -35 14 -56 0 -24 5 -40 15 -43 20 -8 19 -24 -2 -24 -34 0 -53 30 -53 87 0
57 5 63 26 36z m-1581 -850 c-11 -3 -23 -10 -27 -17 -5 -7 -8 -5 -8 7 0 12 7
17 28 16 21 -1 22 -2 7 -6z m98 0 c-13 -2 -33 -2 -45 0 -13 2 -3 4 22 4 25 0
35 -2 23 -4z m-613 -143 c0 -12 9 -30 20 -42 12 -13 20 -36 20 -55 0 -21 6
-36 15 -39 23 -9 22 -144 -1 -144 -34 0 -69 -40 -74 -86 -6 -52 -19 -58 -39
-18 -8 16 -18 37 -23 46 -4 10 -8 31 -8 48 0 18 -6 33 -15 36 -11 5 -15 22
-15 69 0 47 -4 64 -15 69 -8 3 -15 17 -15 31 0 15 7 33 15 41 8 9 15 26 15 40
0 23 3 24 60 24 54 0 60 -2 60 -20z"/>
<path d="M2501 1940 c-13 -11 -37 -20 -55 -20 -19 0 -38 -8 -49 -20 -11 -13
-29 -20 -52 -20 -43 0 -67 -33 -36 -49 17 -10 16 -13 -18 -50 -28 -30 -50 -43
-101 -56 -36 -10 -72 -24 -81 -32 -8 -7 -23 -13 -33 -13 -9 0 -30 -10 -46 -22
-25 -18 -30 -29 -30 -65 0 -37 4 -45 26 -53 14 -6 38 -10 54 -10 15 0 30 -7
34 -15 7 -18 57 -20 74 -3 7 7 12 20 12 30 0 14 8 18 39 18 21 0 55 7 74 15
20 8 57 15 82 15 25 0 60 7 76 16 28 14 33 14 54 0 31 -20 115 -21 141 -1 24
18 54 18 78 0 11 -8 29 -15 40 -15 22 0 95 -32 96 -41 0 -11 -88 -21 -113 -13
-12 4 -25 12 -29 18 -6 8 -11 7 -17 -3 -7 -10 -43 -13 -169 -12 -107 1 -163
-2 -167 -9 -5 -8 80 -11 299 -9 271 1 309 0 325 -15 26 -24 53 -20 84 13 62
66 6 180 -88 181 -24 0 -44 14 -95 65 -58 58 -63 67 -52 85 6 11 12 22 12 25
0 3 -31 5 -70 5 -59 0 -72 3 -82 20 -7 11 -20 20 -28 20 -9 0 -23 9 -33 20
-24 28 -122 28 -156 0z"/>
</g>
</svg>
